<svg width="560" height="120" viewBox="0 0 560 120" fill="none" xmlns="http://www.w3.org/2000/svg" role="img" aria-labelledby="title desc">
  <title id="title">Deploy Fugue Control Plane</title>
  <desc id="desc">Custom README button that links to the deploy-control-plane GitHub Actions workflow.</desc>
  <defs>
    <linearGradient id="surface" x1="0" y1="0" x2="560" y2="120" gradientUnits="userSpaceOnUse">
      <stop stop-color="#4B5563"/>
      <stop offset="1" stop-color="#434B58"/>
    </linearGradient>
    <linearGradient id="cta" x1="340" y1="0" x2="560" y2="120" gradientUnits="userSpaceOnUse">
      <stop stop-color="#11998E"/>
      <stop offset="1" stop-color="#0F766E"/>
    </linearGradient>
    <filter id="shadow" x="0" y="0" width="560" height="120" filterUnits="userSpaceOnUse" color-interpolation-filters="sRGB">
      <feOffset dy="8"/>
      <feGaussianBlur stdDeviation="12"/>
      <feColorMatrix type="matrix" values="0 0 0 0 0.0196078 0 0 0 0 0.0352941 0 0 0 0 0.0588235 0 0 0 0.35 0"/>
      <feBlend mode="normal" in2="SourceGraphic" result="shape"/>
    </filter>
  </defs>

  <g filter="url(#shadow)">
    <rect x="12" y="8" width="536" height="88" rx="18" fill="url(#surface)"/>
    <path d="M352 8H530C539.941 8 548 16.0589 548 26V78C548 87.9411 539.941 96 530 96H352V8Z" fill="url(#cta)"/>
    <path d="M352 8H530C539.941 8 548 16.0589 548 26V78C548 87.9411 539.941 96 530 96H352V8Z" fill="white" fill-opacity="0.04"/>

    <g transform="translate(34 31)" stroke="#FFFFFF" stroke-width="2.5" stroke-linecap="round" stroke-linejoin="round">
      <path d="M14 12H28L36 20"/>
      <path d="M14 36H28L36 28"/>
      <path d="M36 20H48"/>
      <path d="M36 28H48"/>
      <path d="M20 24H28"/>
      <circle cx="10" cy="12" r="6.5"/>
      <circle cx="10" cy="36" r="6.5"/>
      <circle cx="20" cy="24" r="6.5"/>
      <circle cx="36" cy="20" r="6.5"/>
      <circle cx="36" cy="28" r="6.5"/>
      <circle cx="52" cy="24" r="6.5"/>
    </g>

    <text x="102" y="54" fill="#FFFFFF" font-family="system-ui, -apple-system, BlinkMacSystemFont, 'Segoe UI', sans-serif" font-size="13" font-weight="700" letter-spacing="0.36em">DEPLOY CONTROL PLANE</text>
    <text x="384" y="54" fill="#FFFFFF" font-family="system-ui, -apple-system, BlinkMacSystemFont, 'Segoe UI', sans-serif" font-size="13" font-weight="800" letter-spacing="0.3em">RUN WORKFLOW</text>
  </g>
</svg>
